<svg xmlns="http://www.w3.org/2000/svg" viewBox="0 0 900 900"><defs><style>.cls-1{fill:#0f111a;}</style></defs><g id="Layer_2" data-name="Layer 2"><g id="Circle"><path class="cls-1" d="M450,0C201.47,0,0,201.47,0,450S201.47,900,450,900,900,698.53,900,450,698.53,0,450,0Zm0,850C229.09,850,50,670.91,50,450S229.09,50,450,50,850,229.09,850,450,670.91,850,450,850Z"/></g><g id="Initials"><path class="cls-1" d="M356.63,294.07V519.53q0,41.85-25.43,66.15T264.38,610q-41.41,0-66.83-24.29t-25.42-66.15h51.75q.44,20.7,10.57,32.85t29.93,12.15q19.78,0,30.15-12.38t10.35-32.62V294.07Z"/><path class="cls-1" d="M444.15,367.43A152.14,152.14,0,0,1,502.2,310.5Q538.88,290,582.52,290q50,0,88.88,24.52t56.47,69.52H666.22q-12.15-24.74-33.75-36.89t-50-12.15q-31,0-55.35,13.94t-38,40.06q-13.72,26.1-13.73,60.75t13.73,60.75q13.73,26.1,38,40.27T582.52,565q28.35,0,50-12.15t33.75-36.89h61.65q-17.55,45-56.47,69.29t-88.88,24.31q-44.1,0-80.55-20.48a152.63,152.63,0,0,1-57.82-56.92q-21.37-36.47-21.38-82.35T444.15,367.43Z"/></g></g></svg>